<?xml version="1.0" encoding="UTF-8" standalone="no"?>
<svg
   width="180"
   viewBox="0 0 179.99999 50"
   fill="currentColor"
   class="desktopLayout:w-206 flex-shrink-0"
   data-v-6a8e395c=""
   data-v-86f6c3b3=""
   version="1.1"
   id="svg26"
   height="50"
   xmlns="http://www.w3.org/2000/svg"
   xmlns:svg="http://www.w3.org/2000/svg">
  <defs
     id="defs30" />
  <rect
     style="fill:#ffffff"
     id="rect296"
     width="179.82422"
     height="49.966259"
     x="0.19103801"
     y="0.11317988"
     ry="24.98313" />
  <g
     clip-path="url(#company_name)"
     class=""
     data-v-86f6c3b3=""
     id="g20"
     transform="translate(12.574369,5.7356772)">
    <path
       d="m 42.3995,14.6447 h 2.7408 v 1.1934 c 0.8636,-0.9759 1.9869,-1.4614 3.3647,-1.4614 1.6675,0 2.9954,0.5917 3.9938,1.775 1.0784,-1.1833 2.5061,-1.775 4.2884,-1.775 1.6824,0 3.0552,0.5209 4.1086,1.5676 1.0534,1.0468 1.5825,2.397 1.5825,4.0456 v 8.5107 h -2.7407 v -8.5107 c 0,-0.9305 -0.2646,-1.6789 -0.7938,-2.2453 -0.5292,-0.5664 -1.248,-0.8546 -2.1566,-0.8546 -0.9086,0 -1.6425,0.2832 -2.1766,0.8546 -0.5342,0.5664 -0.8038,1.3148 -0.8038,2.2453 v 8.5107 h -2.7407 v -8.5107 c 0,-0.9305 -0.2646,-1.6789 -0.7938,-2.2453 -0.5292,-0.5664 -1.2481,-0.8546 -2.1567,-0.8546 -0.9085,0 -1.6424,0.2832 -2.1766,0.8546 -0.5341,0.5664 -0.8037,1.3148 -0.8037,2.2453 v 8.5107 H 42.3945 V 14.6447 Z"
       data-v-86f6c3b3=""
       id="path2" />
    <path
       d="m 66.3426,26.7559 c -1.3329,-1.3451 -1.9969,-3.0746 -1.9969,-5.1833 0,-2.1087 0.669,-3.8281 2.0019,-5.1783 1.3379,-1.3502 3.0403,-2.0227 5.117,-2.0227 2.0768,0 3.7792,0.6725 5.1121,2.0227 1.3329,1.3502 1.9969,3.0746 1.9969,5.1783 0,2.1037 -0.664,3.8382 -1.9919,5.1833 -1.3279,1.3451 -3.0353,2.0177 -5.1171,2.0177 -2.0817,0 -3.7941,-0.6726 -5.122,-2.0177 z m 8.2971,-1.8053 c 0.7988,-0.8546 1.1982,-1.9772 1.1982,-3.378 0,-1.4008 -0.3994,-2.5386 -1.1982,-3.3982 -0.7987,-0.8547 -1.8571,-1.2845 -3.1751,-1.2845 -1.3179,0 -2.3563,0.4298 -3.165,1.2946 -0.8088,0.8596 -1.2181,1.9924 -1.2181,3.3881 0,1.3957 0.4043,2.5234 1.2081,3.378 0.8037,0.8546 1.8621,1.2794 3.175,1.2794 1.313,0 2.3764,-0.4248 3.1751,-1.2794 z"
       data-v-86f6c3b3=""
       id="path4" />
    <path
       d="m 80.6202,14.6447 h 2.7408 v 1.2439 c 0.9185,-1.0113 2.1017,-1.517 3.5545,-1.517 1.6224,0 2.9404,0.5411 3.9538,1.6232 1.0134,1.0822 1.5226,2.483 1.5226,4.1973 v 8.3084 h -2.7407 v -8.3084 c 0,-0.976 -0.2895,-1.7699 -0.8637,-2.3818 -0.5741,-0.6119 -1.3279,-0.9204 -2.2664,-0.9204 -0.9386,0 -1.7423,0.3034 -2.3115,0.9153 -0.5691,0.6068 -0.8536,1.4058 -0.8536,2.3869 v 8.3084 H 80.6152 V 14.6447 Z"
       data-v-86f6c3b3=""
       id="path6" />
    <path
       d="m 102.511,17.1631 h -4.2632 v 6.6852 c 0,1.4058 0.6889,2.1138 2.0722,2.1138 h 2.191 v 2.5436 h -2.376 c -3.0804,0 -4.623,-1.5525 -4.623,-4.6574 V 17.1631 H 93.8945 V 14.6447 H 95.512 V 9.93677 h 2.7408 v 4.70793 h 4.2632 v 2.5184 z"
       data-v-86f6c3b3=""
       id="path8" />
    <path
       d="M 118.032,22.6295 H 106.7 c 0.194,1.1378 0.679,2.0379 1.447,2.7054 0.769,0.6675 1.723,1.0013 2.851,1.0013 1.523,0 2.631,-0.4956 3.325,-1.4867 h 3.045 c -0.419,1.2086 -1.208,2.1643 -2.371,2.8672 -1.163,0.7029 -2.496,1.0569 -4.004,1.0569 -2.087,0 -3.794,-0.6726 -5.122,-2.0177 -1.328,-1.3451 -1.997,-3.0746 -1.997,-5.1833 0,-2.1087 0.669,-3.8281 2.002,-5.1783 1.338,-1.3502 3.04,-2.0227 5.117,-2.0227 2.077,0 3.779,0.6725 5.112,2.0227 1.333,1.3502 1.997,3.0746 1.997,5.1783 0,0.359 -0.025,0.713 -0.08,1.0569 z m -9.795,-4.885 c -0.759,0.622 -1.253,1.4665 -1.482,2.5285 h 8.481 c -0.224,-1.067 -0.709,-1.9065 -1.462,-2.5285 -0.754,-0.622 -1.678,-0.9355 -2.771,-0.9355 -1.093,0 -2.007,0.3135 -2.766,0.9355 z"
       data-v-86f6c3b3=""
       id="path10" />
    <path
       d="m 120.099,14.6448 h 2.74 v 1.8811 l 4.733,-1.8811 v 2.8571 l -4.733,1.9115 v 9.0923 h -2.74 z"
       data-v-86f6c3b3=""
       id="path12" />
    <path
       d="m 130.543,26.7559 c -1.333,-1.3451 -1.997,-3.0746 -1.997,-5.1833 0,-2.1087 0.669,-3.8281 2.002,-5.1783 1.338,-1.3502 3.04,-2.0227 5.117,-2.0227 1.772,0 3.23,0.5916 4.368,1.775 v -1.5019 h 2.741 v 13.8609 h -2.741 v -1.5019 c -1.138,1.1833 -2.596,1.775 -4.368,1.775 -2.087,0 -3.794,-0.6726 -5.122,-2.0177 z m 8.297,-1.8053 c 0.799,-0.8546 1.198,-1.9772 1.198,-3.378 0,-1.4008 -0.399,-2.5386 -1.198,-3.3982 -0.799,-0.8547 -1.857,-1.2845 -3.175,-1.2845 -1.318,0 -2.356,0.4298 -3.165,1.2946 -0.809,0.8596 -1.218,1.9924 -1.218,3.3881 0,1.3957 0.404,2.5234 1.208,3.378 0.804,0.8546 1.862,1.2794 3.175,1.2794 1.313,0 2.376,-0.4248 3.175,-1.2794 z"
       data-v-86f6c3b3=""
       id="path14" />
    <path
       d="m 145.894,9.93677 h 2.74 V 12.713 h -2.74 z m 0,4.70793 h 2.74 v 13.861 h -2.74 z"
       data-v-86f6c3b3=""
       id="path16" />
    <path
       d="M 151.765,28.5057 V 9.93677 h 2.74 V 28.5057 Z"
       data-v-86f6c3b3=""
       id="path18" />
  </g>
  <g
     clip-path="url(#logo)"
     data-v-86f6c3b3=""
     id="g24"
     transform="translate(12.574369,5.7356772)">
    <path
       d="M 24.5718,10.8521 H 7.15389 L 0,18.0935 17.6775,36 31.7407,21.7547 31.7956,21.6991 v -5.2946 l 1.7423,-1.7648 V 9.34513 L 35.2802,7.58028 V 0 L 24.5668,10.8521 Z M 33.6877,3.90898 V 6.91783 L 12.4507,28.4197 10.968,26.9178 Z m -1.7423,7.05942 v 3.0038 L 15.0666,31.0645 13.5839,29.5626 Z M 16.1998,32.2124 30.2031,18.0278 v 3.0038 L 17.6825,33.7143 Z"
       fill="#f50031"
       data-v-86f6c3b3=""
       id="path22" />
  </g>
</svg>
